<svg width="146" height="42" viewBox="0 0 146 42" fill="none" xmlns="http://www.w3.org/2000/svg">
<path d="M55.4469 34.8427C52.1351 34.8427 49.801 32.9502 49.801 29.5437V29.4806C49.801 26.0426 52.3243 24.1185 56.3616 24.1185C57.8125 24.1185 59.6735 24.4024 60.4305 24.7494V24.4655C60.4305 22.8569 59.4842 21.9737 57.2448 21.9737C55.4785 21.9737 53.996 22.3522 52.482 22.9515L51.2203 18.1887C53.239 17.4317 55.4469 16.9271 58.4749 16.9271C62.0075 16.9271 64.247 17.6525 65.761 19.1665C67.0542 20.4597 67.5588 22.0999 67.5588 24.6232V34.4326H60.3989V32.6978C59.1688 33.991 57.5917 34.8427 55.4469 34.8427ZM58.2856 30.7107C59.5473 30.7107 60.4935 29.7014 60.4935 28.0612V27.3358C60.0835 27.1781 59.4527 27.0519 58.8534 27.0519C57.434 27.0519 56.6455 27.872 56.6455 28.9759V29.039C56.6455 30.0483 57.3709 30.7107 58.2856 30.7107Z" fill="#2F2F2F"/>
<path d="M77.5085 34.8427C74.1335 34.8427 71.1686 33.991 68.6768 32.3509L71.1055 28.282C73.2188 29.5752 75.4898 30.2061 77.4769 30.2061C78.1708 30.2061 78.5178 30.0168 78.5178 29.6383V29.5752C78.5178 29.2283 78.2024 29.039 76.4676 28.5659C72.1149 27.4935 69.4338 26.3264 69.4338 22.7623V22.6992C69.4338 18.9142 72.4618 16.8009 76.9407 16.8009C79.811 16.8009 82.5551 17.5264 84.6684 18.788L82.3974 23.0461C80.5365 22.0368 78.3916 21.4375 76.9092 21.4375C76.2468 21.4375 75.8998 21.6268 75.8998 21.9737V22.0368C75.8998 22.3838 76.2784 22.6361 78.0131 23.0461C82.3974 24.1501 84.9838 25.3171 84.9838 28.8498V28.9128C84.9838 32.6978 82.2082 34.8427 77.5085 34.8427Z" fill="#2F2F2F"/>
<path d="M86.794 34.4326V11.4073H93.9539V19.5135C95.0579 18.0941 96.7926 16.8009 99.2214 16.8009C102.88 16.8009 105.12 19.1665 105.12 23.0777V34.4326H97.9597V25.3802C97.9597 23.8977 97.1081 23.0461 96.0041 23.0461C94.9002 23.0461 93.9539 23.8977 93.9539 25.3802V34.4326H86.794Z" fill="#2F2F2F"/>
<path d="M112.422 34.8427C109.111 34.8427 106.777 32.9502 106.777 29.5437V29.4806C106.777 26.0426 109.3 24.1185 113.337 24.1185C114.788 24.1185 116.649 24.4024 117.406 24.7494V24.4655C117.406 22.8569 116.46 21.9737 114.22 21.9737C112.454 21.9737 110.972 22.3522 109.458 22.9515L108.196 18.1887C110.215 17.4317 112.422 16.9271 115.45 16.9271C118.983 16.9271 121.223 17.6525 122.737 19.1665C124.03 20.4597 124.534 22.0999 124.534 24.6232V34.4326H117.374V32.6978C116.144 33.991 114.567 34.8427 112.422 34.8427ZM115.261 30.7107C116.523 30.7107 117.469 29.7014 117.469 28.0612V27.3358C117.059 27.1781 116.428 27.0519 115.829 27.0519C114.41 27.0519 113.621 27.872 113.621 28.9759V29.039C113.621 30.0483 114.346 30.7107 115.261 30.7107Z" fill="#2F2F2F"/>
<path d="M126.883 34.4326V11.4073H134.042V22.5099L137.733 17.211H145.524L140.13 24.2132L145.618 34.4326H137.954L135.462 29.7014L134.042 31.5308V34.4326H126.883Z" fill="#2F2F2F"/>
<path d="M22.2883 11.3138L46.1605 41.8612H31.3394L7.46715 11.3138H22.2883Z" fill="#00A651"/>
<path d="M17.2791 31.2263L13.5766 41.8613H0L3.70248 31.2263H17.2791Z" fill="#00A651"/>
<path d="M3.64777 31.2262H33.4921C41.1661 31.2262 47.7024 25.6494 48.9105 18.0711C50.4224 8.58751 43.0955 0 33.4921 0H11.0603L7.35402 11.3139H31.7848C34.5156 11.3139 36.5544 13.8266 35.9918 16.4988C35.573 18.4883 33.8179 19.9124 31.7848 19.9124H7.35403L3.64777 31.2262Z" fill="#F5821F"/>
</svg>
