<svg width="171" height="50" viewBox="0 0 171 50" fill="none" xmlns="http://www.w3.org/2000/svg">
<path d="M65.1115 40.9159C61.2224 40.9159 58.4815 38.6935 58.4815 34.6933V34.6192C58.4815 30.5819 61.4446 28.3225 66.1857 28.3225C67.8895 28.3225 70.0748 28.6559 70.9637 29.0633V28.7299C70.9637 26.8409 69.8526 25.8038 67.2228 25.8038C65.1486 25.8038 63.4077 26.2483 61.6298 26.952L60.1483 21.3591C62.5188 20.4702 65.1115 19.8775 68.6673 19.8775C72.8157 19.8775 75.4455 20.7294 77.2234 22.5073C78.742 24.0259 79.3346 25.952 79.3346 28.9151V40.4344H70.9267V38.3972C69.4822 39.9158 67.6302 40.9159 65.1115 40.9159ZM68.4451 36.0637C69.9266 36.0637 71.0378 34.8785 71.0378 32.9524V32.1005C70.5563 31.9153 69.8155 31.7672 69.1118 31.7672C67.445 31.7672 66.519 32.7302 66.519 34.0266V34.1006C66.519 35.2859 67.3709 36.0637 68.4451 36.0637Z" fill="#2F2F2F"/>
<path d="M91.0185 40.9159C87.0553 40.9159 83.5736 39.9158 80.6475 37.9898L83.4995 33.2117C85.9812 34.7303 88.648 35.4711 90.9815 35.4711C91.7963 35.4711 92.2038 35.2489 92.2038 34.8044V34.7303C92.2038 34.3229 91.8334 34.1006 89.7962 33.545C84.6848 32.2857 81.5364 30.9153 81.5364 26.7298V26.6557C81.5364 22.211 85.0922 19.7294 90.3518 19.7294C93.7224 19.7294 96.9448 20.5813 99.4264 22.0629L96.7596 27.0632C94.5743 25.8779 92.0556 25.1742 90.3148 25.1742C89.5369 25.1742 89.1295 25.3964 89.1295 25.8038V25.8779C89.1295 26.2853 89.574 26.5817 91.6111 27.0632C96.7596 28.3595 99.7968 29.73 99.7968 33.8784V33.9525C99.7968 38.3972 96.5374 40.9159 91.0185 40.9159Z" fill="#2F2F2F"/>
<path d="M101.923 40.4344V13.3957H110.33V22.9148C111.627 21.248 113.664 19.7294 116.516 19.7294C120.813 19.7294 123.442 22.5073 123.442 27.1002V40.4344H115.034V29.8041C115.034 28.0632 114.034 27.0632 112.738 27.0632C111.442 27.0632 110.33 28.0632 110.33 29.8041V40.4344H101.923Z" fill="#2F2F2F"/>
<path d="M132.018 40.9159C128.129 40.9159 125.388 38.6935 125.388 34.6933V34.6192C125.388 30.5819 128.351 28.3225 133.092 28.3225C134.796 28.3225 136.981 28.6559 137.87 29.0633V28.7299C137.87 26.8409 136.759 25.8038 134.129 25.8038C132.055 25.8038 130.314 26.2483 128.536 26.952L127.055 21.3591C129.425 20.4702 132.018 19.8775 135.574 19.8775C139.722 19.8775 142.352 20.7294 144.13 22.5073C145.649 24.0259 146.241 25.952 146.241 28.9151V40.4344H137.833V38.3972C136.389 39.9158 134.537 40.9159 132.018 40.9159ZM135.352 36.0637C136.833 36.0637 137.944 34.8785 137.944 32.9524V32.1005C137.463 31.9153 136.722 31.7672 136.018 31.7672C134.352 31.7672 133.426 32.7302 133.426 34.0266V34.1006C133.426 35.2859 134.278 36.0637 135.352 36.0637Z" fill="#2F2F2F"/>
<path d="M148.999 40.4344V13.3957H157.407V26.4335L161.74 20.2109H170.889L164.555 28.4336L171 40.4344H161.999L159.073 34.8785L157.407 37.0267V40.4344H148.999Z" fill="#2F2F2F"/>
<path d="M26.1732 13.2858L54.2065 49.1578H36.802L8.7687 13.2858H26.1732Z" fill="#00A651"/>
<path d="M20.2909 36.6691L15.9431 49.1579H0L4.34784 36.6691H20.2909Z" fill="#00A651"/>
<path d="M4.28359 36.6691H39.3299C48.3415 36.6691 56.0171 30.1202 57.4358 21.221C59.2112 10.0844 50.6072 0 39.3299 0H12.9881L8.63586 13.2859H37.325C40.5318 13.2859 42.926 16.2366 42.2654 19.3746C41.7735 21.7108 39.7124 23.3832 37.325 23.3832H8.63587L4.28359 36.6691Z" fill="#F5821F"/>
</svg>
